# xmcd
#
# Track frame offsets:
#	150
#	15518
#	31962
#	45615
#	58812
#	74259
#	90164
#	108128
#	126978
#	139897
#	152966
#	172172
#	188107
#	204487
#	219487
#
# Disc length: 3197 seconds
#
# Revision: 0
# Processed by: cddbd v1.5.2PL0 Copyright (c) Steve Scherf et al.
# Submitted via: EasyCDDAExtractor 11.5.3.1
#
DISCID=d20c7b0f
DTITLE=Hasse Andersson and Kvinnaböske Band - Edvard, Östen åsse jag
DYEAR=2008
DGENRE=Skåntry
TTITLE0=Jag är en liten påg från skåne
TTITLE1=Min sommardröm
TTITLE2=En liden vid kanin
TTITLE3=Hälften så kär
TTITLE4=Hur pratar dom där hos Sankte Per
TTITLE5=Jag har bott vid en landsväg
TTITLE6=Visst är det sant
TTITLE7=Vi klarar oss nog ändå
TTITLE8=Förlåt lilla vän
TTITLE9=Vi har gungat uppå havet
TTITLE10=Förutom röda rosor
TTITLE11=Abbekåsagåsen Joachim
TTITLE12=Den gamla kvarnen
TTITLE13=Det var länge sen jag plocka några blommor
TTITLE14=Det var länge länge sen
EXTD=
EXTT0=
EXTT1=
EXTT2=
EXTT3=
EXTT4=
EXTT5=
EXTT6=
EXTT7=
EXTT8=
EXTT9=
EXTT10=
EXTT11=
EXTT12=
EXTT13=
EXTT14=
PLAYORDER=
